<svg xmlns="http://www.w3.org/2000/svg" width="28" height="49.969" viewBox="0 0 28 49.969">
  <defs>
    <style>
      .cls-1 {
        fill: #fff;
        fill-rule: evenodd;
      }
    </style>
  </defs>
  <path id="mouse.svg" class="cls-1" d="M810.369,728.205a13.615,13.615,0,0,0-8.992-4.54c-0.1-3.345-1.017-5.693-2.7-7.153a5.46,5.46,0,0,0-2.1-1.173,6.29,6.29,0,0,0-1.8-.318,3.009,3.009,0,0,0-.78.1,1.289,1.289,0,0,0-1.1,1.538,1.341,1.341,0,0,0,1.535,1.1h0.049a3.341,3.341,0,0,1,2.462.757c1.06,0.937,1.632,2.686,1.73,5.152-7.018.487-12.672,6.859-12.672,13.94V750.96a13.665,13.665,0,0,0,4.094,9.961A13.367,13.367,0,0,0,799.963,765h0.074a14.027,14.027,0,0,0,9.869-4.1A14.288,14.288,0,0,0,814,750.96V737.605A13.585,13.585,0,0,0,810.369,728.205ZM811.3,750.96a11.428,11.428,0,0,1-11.258,11.353,11.1,11.1,0,0,1-7.994-3.345,10.969,10.969,0,0,1-3.338-8.008V737.605a10.941,10.941,0,0,1,3.095-7.788,10.232,10.232,0,0,1,7.578-3.516h1.487a10.071,10.071,0,0,1,7.408,3.613,10.9,10.9,0,0,1,3.022,7.691V750.96h0Zm-10.869-20.85h-0.8a3.249,3.249,0,0,0-3.241,3.247v5.665a3.251,3.251,0,0,0,3.241,3.2h0.8a3.068,3.068,0,0,0,2.242-.929,3.1,3.1,0,0,0,.951-2.269v-5.665a3.151,3.151,0,0,0-.951-2.295A3.034,3.034,0,0,0,800.426,730.11Zm0.488,8.912a0.488,0.488,0,0,1-.488.486h-0.8a1.108,1.108,0,0,1-.39-0.144,0.487,0.487,0,0,1-.146-0.342v-5.665a0.5,0.5,0,0,1,.536-0.488h0.8a0.474,0.474,0,0,1,.488.488v5.665Z" transform="translate(-786 -715.031)"/>
</svg>
